<mxfile host="app.diagrams.net" modified="2020-08-20T07:21:45.188Z" agent="5.0 (Windows NT 10.0; Win64; x64) AppleWebKit/537.36 (KHTML, like Gecko) Chrome/84.0.4147.125 Safari/537.36" etag="yFELUD5GcXcg31UNyYIw" version="13.6.3" type="github">
  <diagram id="TvwmMKiJdrQl7Aqg2P8P" name="Page-1">
    <mxGraphModel dx="868" dy="482" grid="1" gridSize="10" guides="1" tooltips="1" connect="1" arrows="1" fold="1" page="1" pageScale="1" pageWidth="827" pageHeight="1169" math="0" shadow="0">
      <root>
        <mxCell id="0" />
        <mxCell id="1" parent="0" />
        <mxCell id="_w-pcRapda4OsQ0ELjEr-1" value="Start" style="strokeWidth=2;html=1;shape=mxgraph.flowchart.terminator;whiteSpace=wrap;" vertex="1" parent="1">
          <mxGeometry x="364" y="20" width="100" height="40" as="geometry" />
        </mxCell>
        <mxCell id="_w-pcRapda4OsQ0ELjEr-2" value="" style="endArrow=classic;html=1;exitX=0.5;exitY=1;exitDx=0;exitDy=0;exitPerimeter=0;" edge="1" parent="1" source="_w-pcRapda4OsQ0ELjEr-1">
          <mxGeometry width="50" height="50" relative="1" as="geometry">
            <mxPoint x="389" y="140" as="sourcePoint" />
            <mxPoint x="414" y="100" as="targetPoint" />
          </mxGeometry>
        </mxCell>
        <mxCell id="_w-pcRapda4OsQ0ELjEr-3" value="Admin" style="rounded=0;whiteSpace=wrap;html=1;" vertex="1" parent="1">
          <mxGeometry x="360" y="101" width="120" height="40" as="geometry" />
        </mxCell>
        <mxCell id="_w-pcRapda4OsQ0ELjEr-4" value="login" style="rhombus;whiteSpace=wrap;html=1;" vertex="1" parent="1">
          <mxGeometry x="354" y="170" width="120" height="70" as="geometry" />
        </mxCell>
        <mxCell id="_w-pcRapda4OsQ0ELjEr-5" value="" style="endArrow=classic;html=1;exitX=0.442;exitY=1;exitDx=0;exitDy=0;exitPerimeter=0;" edge="1" parent="1" source="_w-pcRapda4OsQ0ELjEr-3">
          <mxGeometry width="50" height="50" relative="1" as="geometry">
            <mxPoint x="404" y="190" as="sourcePoint" />
            <mxPoint x="414" y="170" as="targetPoint" />
          </mxGeometry>
        </mxCell>
        <mxCell id="_w-pcRapda4OsQ0ELjEr-6" value="" style="endArrow=classic;html=1;" edge="1" parent="1">
          <mxGeometry width="50" height="50" relative="1" as="geometry">
            <mxPoint x="540" y="150" as="sourcePoint" />
            <mxPoint x="410" y="150" as="targetPoint" />
          </mxGeometry>
        </mxCell>
        <mxCell id="_w-pcRapda4OsQ0ELjEr-7" value="" style="endArrow=none;html=1;exitX=1;exitY=0.5;exitDx=0;exitDy=0;" edge="1" parent="1" source="_w-pcRapda4OsQ0ELjEr-4">
          <mxGeometry width="50" height="50" relative="1" as="geometry">
            <mxPoint x="480" y="230" as="sourcePoint" />
            <mxPoint x="540" y="205" as="targetPoint" />
          </mxGeometry>
        </mxCell>
        <mxCell id="_w-pcRapda4OsQ0ELjEr-8" value="" style="endArrow=none;html=1;" edge="1" parent="1">
          <mxGeometry width="50" height="50" relative="1" as="geometry">
            <mxPoint x="540" y="204" as="sourcePoint" />
            <mxPoint x="540" y="150" as="targetPoint" />
          </mxGeometry>
        </mxCell>
        <mxCell id="_w-pcRapda4OsQ0ELjEr-9" value="No" style="text;html=1;align=center;verticalAlign=middle;resizable=0;points=[];autosize=1;" vertex="1" parent="1">
          <mxGeometry x="495" y="180" width="30" height="20" as="geometry" />
        </mxCell>
        <mxCell id="_w-pcRapda4OsQ0ELjEr-10" value="" style="endArrow=none;html=1;" edge="1" parent="1">
          <mxGeometry width="50" height="50" relative="1" as="geometry">
            <mxPoint x="220" y="380" as="sourcePoint" />
            <mxPoint x="420" y="380" as="targetPoint" />
          </mxGeometry>
        </mxCell>
        <mxCell id="_w-pcRapda4OsQ0ELjEr-11" value="" style="endArrow=none;html=1;" edge="1" parent="1">
          <mxGeometry width="50" height="50" relative="1" as="geometry">
            <mxPoint x="220" y="1080" as="sourcePoint" />
            <mxPoint x="220" y="380" as="targetPoint" />
          </mxGeometry>
        </mxCell>
        <mxCell id="_w-pcRapda4OsQ0ELjEr-12" value="" style="endArrow=classic;html=1;entryX=0;entryY=0.5;entryDx=0;entryDy=0;" edge="1" parent="1" target="_w-pcRapda4OsQ0ELjEr-16">
          <mxGeometry width="50" height="50" relative="1" as="geometry">
            <mxPoint x="220" y="419.5" as="sourcePoint" />
            <mxPoint x="320" y="419.5" as="targetPoint" />
          </mxGeometry>
        </mxCell>
        <mxCell id="_w-pcRapda4OsQ0ELjEr-13" value="Dashboard" style="rounded=0;whiteSpace=wrap;html=1;" vertex="1" parent="1">
          <mxGeometry x="360" y="280" width="120" height="60" as="geometry" />
        </mxCell>
        <mxCell id="_w-pcRapda4OsQ0ELjEr-14" value="" style="endArrow=classic;html=1;exitX=0.5;exitY=1;exitDx=0;exitDy=0;" edge="1" parent="1" source="_w-pcRapda4OsQ0ELjEr-4">
          <mxGeometry width="50" height="50" relative="1" as="geometry">
            <mxPoint x="423.03999999999996" y="151" as="sourcePoint" />
            <mxPoint x="414" y="280" as="targetPoint" />
          </mxGeometry>
        </mxCell>
        <mxCell id="_w-pcRapda4OsQ0ELjEr-15" value="" style="endArrow=none;html=1;entryX=0.5;entryY=1;entryDx=0;entryDy=0;" edge="1" parent="1" target="_w-pcRapda4OsQ0ELjEr-13">
          <mxGeometry width="50" height="50" relative="1" as="geometry">
            <mxPoint x="420" y="380" as="sourcePoint" />
            <mxPoint x="440" y="350" as="targetPoint" />
          </mxGeometry>
        </mxCell>
        <mxCell id="_w-pcRapda4OsQ0ELjEr-16" value="Admin Profile" style="rounded=0;whiteSpace=wrap;html=1;" vertex="1" parent="1">
          <mxGeometry x="281" y="390" width="120" height="60" as="geometry" />
        </mxCell>
        <mxCell id="_w-pcRapda4OsQ0ELjEr-17" value="" style="endArrow=classic;html=1;entryX=0;entryY=0.5;entryDx=0;entryDy=0;exitX=1;exitY=0.15;exitDx=0;exitDy=0;exitPerimeter=0;" edge="1" parent="1" source="_w-pcRapda4OsQ0ELjEr-16">
          <mxGeometry width="50" height="50" relative="1" as="geometry">
            <mxPoint x="440" y="404" as="sourcePoint" />
            <mxPoint x="525" y="399" as="targetPoint" />
          </mxGeometry>
        </mxCell>
        <mxCell id="_w-pcRapda4OsQ0ELjEr-18" value="Update profile data" style="rounded=0;whiteSpace=wrap;html=1;" vertex="1" parent="1">
          <mxGeometry x="525" y="380" width="120" height="40" as="geometry" />
        </mxCell>
        <mxCell id="_w-pcRapda4OsQ0ELjEr-19" value="Change password" style="rounded=0;whiteSpace=wrap;html=1;" vertex="1" parent="1">
          <mxGeometry x="525" y="427" width="120" height="40" as="geometry" />
        </mxCell>
        <mxCell id="_w-pcRapda4OsQ0ELjEr-20" value="" style="endArrow=classic;html=1;" edge="1" parent="1">
          <mxGeometry width="50" height="50" relative="1" as="geometry">
            <mxPoint x="402" y="440" as="sourcePoint" />
            <mxPoint x="524" y="440" as="targetPoint" />
          </mxGeometry>
        </mxCell>
        <mxCell id="_w-pcRapda4OsQ0ELjEr-21" value="" style="endArrow=classic;html=1;" edge="1" parent="1">
          <mxGeometry width="50" height="50" relative="1" as="geometry">
            <mxPoint x="645" y="400" as="sourcePoint" />
            <mxPoint x="360" y="388" as="targetPoint" />
            <Array as="points">
              <mxPoint x="730" y="400" />
              <mxPoint x="730" y="360" />
              <mxPoint x="550" y="360" />
              <mxPoint x="360" y="360" />
            </Array>
          </mxGeometry>
        </mxCell>
        <mxCell id="_w-pcRapda4OsQ0ELjEr-22" value="Done" style="text;html=1;align=center;verticalAlign=middle;resizable=0;points=[];autosize=1;" vertex="1" parent="1">
          <mxGeometry x="660" y="380" width="40" height="20" as="geometry" />
        </mxCell>
        <mxCell id="_w-pcRapda4OsQ0ELjEr-23" value="" style="endArrow=classic;html=1;" edge="1" parent="1">
          <mxGeometry width="50" height="50" relative="1" as="geometry">
            <mxPoint x="644" y="440" as="sourcePoint" />
            <mxPoint x="370" y="453" as="targetPoint" />
            <Array as="points">
              <mxPoint x="730" y="440" />
              <mxPoint x="729" y="480" />
              <mxPoint x="559" y="480" />
              <mxPoint x="479" y="480" />
              <mxPoint x="370" y="480" />
            </Array>
          </mxGeometry>
        </mxCell>
        <mxCell id="_w-pcRapda4OsQ0ELjEr-24" value="Done" style="text;html=1;align=center;verticalAlign=middle;resizable=0;points=[];autosize=1;" vertex="1" parent="1">
          <mxGeometry x="660" y="456" width="40" height="20" as="geometry" />
        </mxCell>
        <mxCell id="_w-pcRapda4OsQ0ELjEr-25" value="" style="endArrow=classic;html=1;entryX=0.008;entryY=0.413;entryDx=0;entryDy=0;entryPerimeter=0;" edge="1" parent="1" target="_w-pcRapda4OsQ0ELjEr-26">
          <mxGeometry width="50" height="50" relative="1" as="geometry">
            <mxPoint x="220" y="549" as="sourcePoint" />
            <mxPoint x="320" y="520" as="targetPoint" />
            <Array as="points" />
          </mxGeometry>
        </mxCell>
        <mxCell id="_w-pcRapda4OsQ0ELjEr-26" value="Institute&amp;nbsp;" style="rounded=0;whiteSpace=wrap;html=1;" vertex="1" parent="1">
          <mxGeometry x="281" y="499" width="120" height="121" as="geometry" />
        </mxCell>
        <mxCell id="_w-pcRapda4OsQ0ELjEr-27" value="" style="endArrow=classic;html=1;" edge="1" parent="1">
          <mxGeometry width="50" height="50" relative="1" as="geometry">
            <mxPoint x="401" y="510" as="sourcePoint" />
            <mxPoint x="481" y="510" as="targetPoint" />
          </mxGeometry>
        </mxCell>
        <mxCell id="_w-pcRapda4OsQ0ELjEr-28" value="CRUD Operation for institute" style="rounded=0;whiteSpace=wrap;html=1;" vertex="1" parent="1">
          <mxGeometry x="481" y="486" width="120" height="37" as="geometry" />
        </mxCell>
        <mxCell id="_w-pcRapda4OsQ0ELjEr-29" value="" style="endArrow=classic;html=1;exitX=1.017;exitY=0.9;exitDx=0;exitDy=0;exitPerimeter=0;" edge="1" parent="1">
          <mxGeometry width="50" height="50" relative="1" as="geometry">
            <mxPoint x="402.03999999999996" y="551" as="sourcePoint" />
            <mxPoint x="480" y="551" as="targetPoint" />
          </mxGeometry>
        </mxCell>
        <mxCell id="_w-pcRapda4OsQ0ELjEr-30" value="Crud Operation for AICPE Staff" style="rounded=0;whiteSpace=wrap;html=1;" vertex="1" parent="1">
          <mxGeometry x="480" y="532" width="120" height="39" as="geometry" />
        </mxCell>
        <mxCell id="_w-pcRapda4OsQ0ELjEr-31" value="" style="endArrow=classic;html=1;" edge="1" parent="1">
          <mxGeometry width="50" height="50" relative="1" as="geometry">
            <mxPoint x="400" y="599.5" as="sourcePoint" />
            <mxPoint x="480" y="599.5" as="targetPoint" />
          </mxGeometry>
        </mxCell>
        <mxCell id="_w-pcRapda4OsQ0ELjEr-32" value="" style="edgeStyle=orthogonalEdgeStyle;rounded=0;orthogonalLoop=1;jettySize=auto;html=1;entryX=0;entryY=0.5;entryDx=0;entryDy=0;" edge="1" parent="1" source="_w-pcRapda4OsQ0ELjEr-33" target="_w-pcRapda4OsQ0ELjEr-34">
          <mxGeometry relative="1" as="geometry">
            <Array as="points" />
          </mxGeometry>
        </mxCell>
        <mxCell id="_w-pcRapda4OsQ0ELjEr-33" value="Action Button&amp;nbsp;" style="rounded=0;whiteSpace=wrap;html=1;" vertex="1" parent="1">
          <mxGeometry x="480" y="580" width="120" height="40" as="geometry" />
        </mxCell>
        <mxCell id="_w-pcRapda4OsQ0ELjEr-34" value="Send SMS for recover password,document require sms" style="whiteSpace=wrap;html=1;rounded=0;" vertex="1" parent="1">
          <mxGeometry x="680" y="518" width="120" height="60" as="geometry" />
        </mxCell>
        <mxCell id="_w-pcRapda4OsQ0ELjEr-35" value="" style="endArrow=classic;html=1;" edge="1" parent="1">
          <mxGeometry width="50" height="50" relative="1" as="geometry">
            <mxPoint x="640" y="600" as="sourcePoint" />
            <mxPoint x="680" y="600" as="targetPoint" />
          </mxGeometry>
        </mxCell>
        <mxCell id="_w-pcRapda4OsQ0ELjEr-36" value="Remarks, Direct login to institute account, ATC Certificate, Print address" style="rounded=0;whiteSpace=wrap;html=1;" vertex="1" parent="1">
          <mxGeometry x="680" y="585" width="120" height="55" as="geometry" />
        </mxCell>
        <mxCell id="_w-pcRapda4OsQ0ELjEr-37" value="" style="endArrow=classic;html=1;entryX=0;entryY=0.5;entryDx=0;entryDy=0;" edge="1" parent="1" target="_w-pcRapda4OsQ0ELjEr-38">
          <mxGeometry width="50" height="50" relative="1" as="geometry">
            <mxPoint x="220" y="730" as="sourcePoint" />
            <mxPoint x="320" y="699.5" as="targetPoint" />
          </mxGeometry>
        </mxCell>
        <mxCell id="_w-pcRapda4OsQ0ELjEr-38" value="Certificate" style="rounded=0;whiteSpace=wrap;html=1;" vertex="1" parent="1">
          <mxGeometry x="280" y="670" width="120" height="120" as="geometry" />
        </mxCell>
        <mxCell id="_w-pcRapda4OsQ0ELjEr-39" value="" style="endArrow=classic;html=1;entryX=-0.011;entryY=0.643;entryDx=0;entryDy=0;entryPerimeter=0;" edge="1" parent="1" target="_w-pcRapda4OsQ0ELjEr-40">
          <mxGeometry width="50" height="50" relative="1" as="geometry">
            <mxPoint x="400" y="682" as="sourcePoint" />
            <mxPoint x="520" y="700" as="targetPoint" />
          </mxGeometry>
        </mxCell>
        <mxCell id="_w-pcRapda4OsQ0ELjEr-40" value="AICPE" style="rounded=0;whiteSpace=wrap;html=1;" vertex="1" parent="1">
          <mxGeometry x="440" y="650" width="120" height="50" as="geometry" />
        </mxCell>
        <mxCell id="_w-pcRapda4OsQ0ELjEr-41" value="Vocational, Typing certificate" style="rounded=0;whiteSpace=wrap;html=1;" vertex="1" parent="1">
          <mxGeometry x="610" y="650" width="120" height="50" as="geometry" />
        </mxCell>
        <mxCell id="_w-pcRapda4OsQ0ELjEr-42" value="" style="endArrow=none;html=1;" edge="1" parent="1">
          <mxGeometry width="50" height="50" relative="1" as="geometry">
            <mxPoint x="560" y="670" as="sourcePoint" />
            <mxPoint x="580" y="800" as="targetPoint" />
            <Array as="points">
              <mxPoint x="580" y="670" />
              <mxPoint x="580" y="750" />
            </Array>
          </mxGeometry>
        </mxCell>
        <mxCell id="_w-pcRapda4OsQ0ELjEr-43" value="" style="endArrow=classic;html=1;entryX=0;entryY=0.4;entryDx=0;entryDy=0;entryPerimeter=0;" edge="1" parent="1" target="_w-pcRapda4OsQ0ELjEr-41">
          <mxGeometry width="50" height="50" relative="1" as="geometry">
            <mxPoint x="574" y="670" as="sourcePoint" />
            <mxPoint x="604" y="670" as="targetPoint" />
          </mxGeometry>
        </mxCell>
        <mxCell id="_w-pcRapda4OsQ0ELjEr-44" value="" style="endArrow=classic;html=1;" edge="1" parent="1" target="_w-pcRapda4OsQ0ELjEr-45">
          <mxGeometry width="50" height="50" relative="1" as="geometry">
            <mxPoint x="580" y="740" as="sourcePoint" />
            <mxPoint x="680" y="740" as="targetPoint" />
          </mxGeometry>
        </mxCell>
        <mxCell id="_w-pcRapda4OsQ0ELjEr-45" value="&lt;font style=&quot;font-size: 10px&quot;&gt;Search by student name, CRUD Opertion in student details&lt;/font&gt;" style="rounded=0;whiteSpace=wrap;html=1;" vertex="1" parent="1">
          <mxGeometry x="610" y="710" width="120" height="60" as="geometry" />
        </mxCell>
        <mxCell id="_w-pcRapda4OsQ0ELjEr-46" value="" style="endArrow=classic;html=1;entryX=0.008;entryY=0.367;entryDx=0;entryDy=0;entryPerimeter=0;" edge="1" parent="1" target="_w-pcRapda4OsQ0ELjEr-47">
          <mxGeometry width="50" height="50" relative="1" as="geometry">
            <mxPoint x="580" y="800" as="sourcePoint" />
            <mxPoint x="680" y="790" as="targetPoint" />
          </mxGeometry>
        </mxCell>
        <mxCell id="_w-pcRapda4OsQ0ELjEr-47" value="Option for approved" style="rounded=0;whiteSpace=wrap;html=1;" vertex="1" parent="1">
          <mxGeometry x="610" y="778" width="120" height="60" as="geometry" />
        </mxCell>
        <mxCell id="_w-pcRapda4OsQ0ELjEr-48" value="" style="endArrow=classic;html=1;" edge="1" parent="1" target="_w-pcRapda4OsQ0ELjEr-49">
          <mxGeometry width="50" height="50" relative="1" as="geometry">
            <mxPoint x="730" y="670" as="sourcePoint" />
            <mxPoint x="760" y="670" as="targetPoint" />
          </mxGeometry>
        </mxCell>
        <mxCell id="_w-pcRapda4OsQ0ELjEr-49" value="Print, Reprint" style="rounded=0;whiteSpace=wrap;html=1;" vertex="1" parent="1">
          <mxGeometry x="760" y="655" width="100" height="30" as="geometry" />
        </mxCell>
        <mxCell id="_w-pcRapda4OsQ0ELjEr-50" value="" style="endArrow=classic;html=1;exitX=1;exitY=0.25;exitDx=0;exitDy=0;" edge="1" parent="1" source="_w-pcRapda4OsQ0ELjEr-47">
          <mxGeometry width="50" height="50" relative="1" as="geometry">
            <mxPoint x="730" y="800" as="sourcePoint" />
            <mxPoint x="790" y="680" as="targetPoint" />
            <Array as="points">
              <mxPoint x="790" y="793" />
            </Array>
          </mxGeometry>
        </mxCell>
        <mxCell id="_w-pcRapda4OsQ0ELjEr-51" value="" style="endArrow=classic;html=1;" edge="1" parent="1">
          <mxGeometry width="50" height="50" relative="1" as="geometry">
            <mxPoint x="730" y="820" as="sourcePoint" />
            <mxPoint x="750" y="820" as="targetPoint" />
          </mxGeometry>
        </mxCell>
        <mxCell id="_w-pcRapda4OsQ0ELjEr-52" value="Send sms for approve" style="rounded=0;whiteSpace=wrap;html=1;" vertex="1" parent="1">
          <mxGeometry x="750" y="798" width="60" height="40" as="geometry" />
        </mxCell>
        <mxCell id="_w-pcRapda4OsQ0ELjEr-53" value="" style="endArrow=classic;html=1;entryX=0.008;entryY=0.383;entryDx=0;entryDy=0;entryPerimeter=0;exitX=1;exitY=0.5;exitDx=0;exitDy=0;" edge="1" parent="1" source="_w-pcRapda4OsQ0ELjEr-38" target="_w-pcRapda4OsQ0ELjEr-54">
          <mxGeometry width="50" height="50" relative="1" as="geometry">
            <mxPoint x="401" y="750" as="sourcePoint" />
            <mxPoint x="420" y="840" as="targetPoint" />
            <Array as="points">
              <mxPoint x="440" y="730" />
              <mxPoint x="440" y="843" />
            </Array>
          </mxGeometry>
        </mxCell>
        <mxCell id="_w-pcRapda4OsQ0ELjEr-54" value="AICPE Associate" style="rounded=0;whiteSpace=wrap;html=1;" vertex="1" parent="1">
          <mxGeometry x="460" y="820" width="120" height="60" as="geometry" />
        </mxCell>
        <mxCell id="_w-pcRapda4OsQ0ELjEr-55" value="" style="endArrow=classic;html=1;entryX=0;entryY=0.25;entryDx=0;entryDy=0;exitX=1;exitY=0.75;exitDx=0;exitDy=0;" edge="1" parent="1" source="_w-pcRapda4OsQ0ELjEr-54" target="_w-pcRapda4OsQ0ELjEr-56">
          <mxGeometry width="50" height="50" relative="1" as="geometry">
            <mxPoint x="560" y="860" as="sourcePoint" />
            <mxPoint x="610" y="860" as="targetPoint" />
          </mxGeometry>
        </mxCell>
        <mxCell id="_w-pcRapda4OsQ0ELjEr-56" value="Name of associate, Student list" style="rounded=0;whiteSpace=wrap;html=1;" vertex="1" parent="1">
          <mxGeometry x="610" y="850" width="120" height="60" as="geometry" />
        </mxCell>
        <mxCell id="_w-pcRapda4OsQ0ELjEr-57" value="" style="endArrow=classic;html=1;entryX=0.63;entryY=0.967;entryDx=0;entryDy=0;entryPerimeter=0;" edge="1" parent="1" target="_w-pcRapda4OsQ0ELjEr-49">
          <mxGeometry width="50" height="50" relative="1" as="geometry">
            <mxPoint x="730" y="882" as="sourcePoint" />
            <mxPoint x="760" y="883.5" as="targetPoint" />
            <Array as="points">
              <mxPoint x="820" y="882" />
            </Array>
          </mxGeometry>
        </mxCell>
        <mxCell id="_w-pcRapda4OsQ0ELjEr-58" value="" style="endArrow=classic;html=1;entryX=0;entryY=0.367;entryDx=0;entryDy=0;entryPerimeter=0;" edge="1" parent="1" target="_w-pcRapda4OsQ0ELjEr-59">
          <mxGeometry width="50" height="50" relative="1" as="geometry">
            <mxPoint x="401" y="770" as="sourcePoint" />
            <mxPoint x="450" y="940" as="targetPoint" />
            <Array as="points">
              <mxPoint x="420" y="770" />
              <mxPoint x="420" y="942" />
            </Array>
          </mxGeometry>
        </mxCell>
        <mxCell id="_w-pcRapda4OsQ0ELjEr-59" value="Participation Certificate" style="rounded=0;whiteSpace=wrap;html=1;" vertex="1" parent="1">
          <mxGeometry x="460" y="920" width="120" height="60" as="geometry" />
        </mxCell>
        <mxCell id="_w-pcRapda4OsQ0ELjEr-60" value="" style="endArrow=classic;html=1;" edge="1" parent="1">
          <mxGeometry width="50" height="50" relative="1" as="geometry">
            <mxPoint x="580" y="950" as="sourcePoint" />
            <mxPoint x="610" y="950" as="targetPoint" />
          </mxGeometry>
        </mxCell>
        <mxCell id="_w-pcRapda4OsQ0ELjEr-61" value="List institute wise and CRUD Operation" style="rounded=0;whiteSpace=wrap;html=1;" vertex="1" parent="1">
          <mxGeometry x="610" y="930" width="120" height="60" as="geometry" />
        </mxCell>
        <mxCell id="_w-pcRapda4OsQ0ELjEr-62" value="" style="endArrow=classic;html=1;" edge="1" parent="1">
          <mxGeometry width="50" height="50" relative="1" as="geometry">
            <mxPoint x="730" y="960" as="sourcePoint" />
            <mxPoint x="843" y="680" as="targetPoint" />
            <Array as="points">
              <mxPoint x="843" y="960" />
            </Array>
          </mxGeometry>
        </mxCell>
        <mxCell id="_w-pcRapda4OsQ0ELjEr-63" value="" style="endArrow=classic;html=1;entryX=0.017;entryY=0.422;entryDx=0;entryDy=0;entryPerimeter=0;" edge="1" parent="1" target="_w-pcRapda4OsQ0ELjEr-64">
          <mxGeometry width="50" height="50" relative="1" as="geometry">
            <mxPoint x="220" y="1047" as="sourcePoint" />
            <mxPoint x="270" y="1040" as="targetPoint" />
          </mxGeometry>
        </mxCell>
        <mxCell id="_w-pcRapda4OsQ0ELjEr-64" value="Associates" style="rounded=0;whiteSpace=wrap;html=1;" vertex="1" parent="1">
          <mxGeometry x="270" y="1010" width="120" height="90" as="geometry" />
        </mxCell>
        <mxCell id="_w-pcRapda4OsQ0ELjEr-65" value="" style="endArrow=classic;html=1;" edge="1" parent="1">
          <mxGeometry width="50" height="50" relative="1" as="geometry">
            <mxPoint x="390" y="1040" as="sourcePoint" />
            <mxPoint x="440" y="1040" as="targetPoint" />
          </mxGeometry>
        </mxCell>
        <mxCell id="_w-pcRapda4OsQ0ELjEr-66" value="CRUD Operation On Associates" style="rounded=0;whiteSpace=wrap;html=1;" vertex="1" parent="1">
          <mxGeometry x="440" y="1010" width="120" height="60" as="geometry" />
        </mxCell>
        <mxCell id="_w-pcRapda4OsQ0ELjEr-67" value="" style="endArrow=classic;html=1;" edge="1" parent="1" target="_w-pcRapda4OsQ0ELjEr-68">
          <mxGeometry width="50" height="50" relative="1" as="geometry">
            <mxPoint x="560" y="1040" as="sourcePoint" />
            <mxPoint x="620" y="1040" as="targetPoint" />
          </mxGeometry>
        </mxCell>
        <mxCell id="_w-pcRapda4OsQ0ELjEr-68" value="List Associates,No. of courses, Total Admission" style="rounded=0;whiteSpace=wrap;html=1;" vertex="1" parent="1">
          <mxGeometry x="630" y="1010" width="120" height="60" as="geometry" />
        </mxCell>
        <mxCell id="_w-pcRapda4OsQ0ELjEr-69" value="" style="endArrow=classic;html=1;" edge="1" parent="1">
          <mxGeometry width="50" height="50" relative="1" as="geometry">
            <mxPoint x="390" y="1090" as="sourcePoint" />
            <mxPoint x="440" y="1090" as="targetPoint" />
          </mxGeometry>
        </mxCell>
        <mxCell id="_w-pcRapda4OsQ0ELjEr-70" value="Offers" style="rounded=0;whiteSpace=wrap;html=1;" vertex="1" parent="1">
          <mxGeometry x="440" y="1079" width="120" height="71" as="geometry" />
        </mxCell>
        <mxCell id="_w-pcRapda4OsQ0ELjEr-71" value="" style="endArrow=classic;html=1;" edge="1" parent="1" target="_w-pcRapda4OsQ0ELjEr-72">
          <mxGeometry width="50" height="50" relative="1" as="geometry">
            <mxPoint x="560" y="1096" as="sourcePoint" />
            <mxPoint x="630" y="1096" as="targetPoint" />
          </mxGeometry>
        </mxCell>
        <mxCell id="_w-pcRapda4OsQ0ELjEr-72" value="Partnership" style="rounded=0;whiteSpace=wrap;html=1;" vertex="1" parent="1">
          <mxGeometry x="630" y="1079" width="120" height="41" as="geometry" />
        </mxCell>
        <mxCell id="_w-pcRapda4OsQ0ELjEr-73" value="" style="endArrow=classic;html=1;exitX=1;exitY=0.859;exitDx=0;exitDy=0;exitPerimeter=0;" edge="1" parent="1" source="_w-pcRapda4OsQ0ELjEr-70" target="_w-pcRapda4OsQ0ELjEr-74">
          <mxGeometry width="50" height="50" relative="1" as="geometry">
            <mxPoint x="560" y="1130" as="sourcePoint" />
            <mxPoint x="630" y="1140" as="targetPoint" />
          </mxGeometry>
        </mxCell>
        <mxCell id="_w-pcRapda4OsQ0ELjEr-74" value="Affiliation" style="rounded=0;whiteSpace=wrap;html=1;" vertex="1" parent="1">
          <mxGeometry x="630" y="1130" width="120" height="30" as="geometry" />
        </mxCell>
      </root>
    </mxGraphModel>
  </diagram>
</mxfile>
